<svg width="200" height="200" viewBox="0 0 200 200" fill="none" xmlns="http://www.w3.org/2000/svg">
  <rect width="200" height="200" fill="white"/>
  <rect x="20" y="20" width="160" height="160" fill="#1C1C1C" fill-opacity="0.05"/>
  <rect x="20" y="20" width="30" height="30" rx="4" fill="#003D73"/>
  <rect x="150" y="20" width="30" height="30" rx="4" fill="#003D73"/>
  <rect x="20" y="150" width="30" height="30" rx="4" fill="#003D73"/>
  <rect x="60" y="20" width="10" height="10" fill="#003D73"/>
  <rect x="80" y="20" width="10" height="10" fill="#003D73"/>
  <rect x="110" y="20" width="10" height="10" fill="#003D73"/>
  <rect x="130" y="20" width="10" height="10" fill="#003D73"/>
  <rect x="20" y="60" width="10" height="10" fill="#003D73"/>
  <rect x="20" y="80" width="10" height="10" fill="#003D73"/>
  <rect x="20" y="110" width="10" height="10" fill="#003D73"/>
  <rect x="20" y="130" width="10" height="10" fill="#003D73"/>
  <rect x="60" y="60" width="80" height="80" rx="10" fill="#003D73"/>
  <rect x="70" y="70" width="60" height="60" rx="5" fill="white"/>
  <path d="M85 100C85 92.268 91.268 86 99 86H101C108.732 86 115 92.268 115 100V102C115 109.732 108.732 116 101 116H99C91.268 116 85 109.732 85 102V100Z" fill="#003D73"/>
  <rect x="150" y="60" width="10" height="10" fill="#003D73"/>
  <rect x="170" y="60" width="10" height="10" fill="#003D73"/>
  <rect x="150" y="80" width="10" height="10" fill="#003D73"/>
  <rect x="170" y="80" width="10" height="10" fill="#003D73"/>
  <rect x="60" y="150" width="10" height="10" fill="#003D73"/>
  <rect x="80" y="150" width="10" height="10" fill="#003D73"/>
  <rect x="60" y="170" width="10" height="10" fill="#003D73"/>
  <rect x="80" y="170" width="10" height="10" fill="#003D73"/>
  <rect x="110" y="150" width="10" height="10" fill="#003D73"/>
  <rect x="130" y="150" width="10" height="10" fill="#003D73"/>
  <rect x="150" y="150" width="10" height="10" fill="#003D73"/>
  <rect x="170" y="150" width="10" height="10" fill="#003D73"/>
  <rect x="110" y="170" width="10" height="10" fill="#003D73"/>
  <rect x="150" y="170" width="10" height="10" fill="#003D73"/>
  <rect x="170" y="170" width="10" height="10" fill="#003D73"/>
  <rect x="150" y="110" width="10" height="10" fill="#003D73"/>
  <rect x="150" y="130" width="10" height="10" fill="#003D73"/>
  <rect x="170" y="110" width="10" height="10" fill="#003D73"/>
  <rect x="170" y="130" width="10" height="10" fill="#003D73"/>
  <rect x="75" y="130" width="50" height="10" fill="#003D73"/>
  <rect x="95" y="150" width="10" height="10" fill="#003D73"/>
</svg> 